<?xml version="1.0" encoding="UTF-8" standalone="no"?>
<!-- Created with Inkscape (http://www.inkscape.org/) -->

<svg
   xmlns:svg="http://www.w3.org/2000/svg"
   xmlns="http://www.w3.org/2000/svg"
   xmlns:xlink="http://www.w3.org/1999/xlink"
   version="1.1"
   width="1180"
   height="600"
   id="svg2">
  <defs
     id="defs4">
    <pattern
       patternTransform="translate(1080.5,248.5)"
       id="pattern3062"
       xlink:href="#pattern4393" />
    <pattern
       patternUnits="userSpaceOnUse"
       width="10"
       height="10"
       patternTransform="translate(890.5,672.29074)"
       id="pattern4393">
      <path
         id="rect4383"
         d="M 0,0 0,10 10,10 10,0 0,0 z m 0.5,0.5 9,0 0,9 -9,0 0,-9 z"
         style="fill:#333333;fill-opacity:1;stroke:none" />
    </pattern>
  </defs>
  <rect
     width="1180.0048"
     height="268.99982"
     x="0"
     y="331.00021"
     id="rect3628"
     style="fill:#62995b;fill-opacity:1;stroke:none" />
  <rect
     width="1180.0048"
     height="313.5"
     x="0"
     y="-331.00021"
     transform="scale(1,-1)"
     id="rect3630"
     style="fill:#39a6e5;fill-opacity:1;stroke:none" />
  <g
     transform="translate(190,-423.79074)"
     id="g3068">
    <g
       id="g3070">
      <rect
         width="2"
         height="10"
         x="851"
         y="561.79071"
         id="rect3072"
         style="fill:#ff0000;fill-opacity:1;stroke:none" />
      <rect
         width="2"
         height="10"
         x="851"
         y="-581.79071"
         transform="scale(1,-1)"
         id="rect3074"
         style="fill:#ffffff;fill-opacity:1;stroke:none" />
      <rect
         width="2"
         height="10"
         x="851"
         y="-601.79071"
         transform="scale(1,-1)"
         id="rect3076"
         style="fill:#ffffff;fill-opacity:1;stroke:none" />
      <rect
         width="2"
         height="10"
         x="851"
         y="581.79071"
         id="rect3078"
         style="fill:#ff0000;fill-opacity:1;stroke:none" />
    </g>
    <use
       transform="translate(0,40.00003)"
       id="use3080"
       x="0"
       y="0"
       width="1180"
       height="600"
       xlink:href="#g4424" />
    <use
       transform="translate(0,80.00003)"
       id="use3082"
       x="0"
       y="0"
       width="1180"
       height="600"
       xlink:href="#g4424" />
    <use
       transform="translate(0,120.00003)"
       id="use3084"
       x="0"
       y="0"
       width="1180"
       height="600"
       xlink:href="#g4424" />
    <g
       transform="translate(0,160)"
       id="g3086">
      <rect
         width="2"
         height="10"
         x="851"
         y="561.79071"
         id="rect3088"
         style="fill:#ff0000;fill-opacity:1;stroke:none" />
      <rect
         width="2"
         height="10"
         x="851"
         y="-581.79071"
         transform="scale(1,-1)"
         id="rect3090"
         style="fill:#ffffff;fill-opacity:1;stroke:none" />
    </g>
  </g>
  <rect
     width="1001"
     height="100"
     x="90"
     y="217.99997"
     id="rect4379"
     style="fill:url(#pattern3062);fill-opacity:1;stroke:none" />
  <path
     d="m 23,578.99996 1134,0 L 921,343 259,343 23,578.99996 z"
     id="path3632"
     style="fill:#e19b4f;fill-opacity:1;stroke:#ffffff;stroke-width:4;stroke-linecap:butt;stroke-linejoin:miter;stroke-miterlimit:4;stroke-opacity:1;stroke-dasharray:none" />
  <path
     d="m 99,501 0,4 982,0 0,-4 -982,0 z"
     id="path3634"
     style="font-size:medium;font-style:normal;font-variant:normal;font-weight:normal;font-stretch:normal;text-indent:0;text-align:start;text-decoration:none;line-height:normal;letter-spacing:normal;word-spacing:normal;text-transform:none;direction:ltr;block-progression:tb;writing-mode:lr-tb;text-anchor:start;color:#000000;fill:#ffffff;fill-opacity:1;stroke:none;stroke-width:4;marker:none;visibility:visible;display:inline;overflow:visible;enable-background:accumulate;font-family:Andale Mono;-inkscape-font-specification:Andale Mono" />
  <path
     d="m 140.75,459 0,4 898.5,0 0,-4 -898.5,0 z"
     id="path3640"
     style="font-size:medium;font-style:normal;font-variant:normal;font-weight:normal;font-stretch:normal;text-indent:0;text-align:start;text-decoration:none;line-height:normal;letter-spacing:normal;word-spacing:normal;text-transform:none;direction:ltr;block-progression:tb;writing-mode:lr-tb;text-anchor:start;color:#000000;fill:#ffffff;fill-opacity:1;stroke:none;stroke-width:4;marker:none;visibility:visible;display:inline;overflow:visible;enable-background:accumulate;font-family:Andale Mono;-inkscape-font-specification:Andale Mono" />
  <path
     d="m 178.75699,421 0,4 822.48601,0 0,-4 -822.48601,0 z"
     id="path3642"
     style="font-size:medium;font-style:normal;font-variant:normal;font-weight:normal;font-stretch:normal;text-indent:0;text-align:start;text-decoration:none;line-height:normal;letter-spacing:normal;word-spacing:normal;text-transform:none;direction:ltr;block-progression:tb;writing-mode:lr-tb;text-anchor:start;color:#000000;fill:#ffffff;fill-opacity:1;stroke:none;stroke-width:4;marker:none;visibility:visible;display:inline;overflow:visible;enable-background:accumulate;font-family:Andale Mono;-inkscape-font-specification:Andale Mono" />
  <rect
     width="1000"
     height="4"
     x="90.5"
     y="313.49997"
     id="rect3644"
     style="fill:#ffffff;fill-opacity:1;stroke:#000000;stroke-width:1;stroke-linecap:square;stroke-miterlimit:4;stroke-opacity:1;stroke-dasharray:none" />
  <path
     d="m 39.5,460.99997 0,-254.5 -9,0 0,254.5"
     id="rect2830"
     style="fill:#eae171;fill-opacity:1;stroke:#333333;stroke-opacity:1" />
  <rect
     width="51"
     height="2"
     x="-90.5"
     y="316.00009"
     transform="scale(-1,1)"
     id="rect3620"
     style="fill:#333333;fill-opacity:1;stroke:#000000;stroke-width:0;stroke-linecap:square;stroke-miterlimit:4;stroke-opacity:1;stroke-dasharray:none" />
  <path
     d="m 39.8125,207.02176 51,11 -0.625,2.9375 -51,-11 0.625,-2.9375 z"
     id="path3622"
     style="font-size:medium;font-style:normal;font-variant:normal;font-weight:normal;font-stretch:normal;text-indent:0;text-align:start;text-decoration:none;line-height:normal;letter-spacing:normal;word-spacing:normal;text-transform:none;direction:ltr;block-progression:tb;writing-mode:lr-tb;text-anchor:start;color:#000000;fill:#333333;fill-opacity:1;stroke:none;stroke-width:3;marker:none;visibility:visible;display:inline;overflow:visible;enable-background:accumulate;font-family:Andale Mono;-inkscape-font-specification:Andale Mono" />
  <rect
     width="1000"
     height="6"
     x="90.5"
     y="218.49997"
     id="rect3648"
     style="fill:#ffffff;fill-opacity:1;stroke:#000000;stroke-width:1;stroke-linecap:square;stroke-miterlimit:4;stroke-opacity:1;stroke-dasharray:none" />
  <rect
     width="1180.0048"
     height="17.5"
     x="0"
     y="9.6679685e-07"
     id="rect4459"
     style="fill:#333333;fill-opacity:1;stroke:none" />
  <path
     d="m 1141.5,460.99997 0,-254.5 9,0 0,254.5"
     id="path3092"
     style="fill:#eae171;fill-opacity:1;stroke:#333333;stroke-opacity:1" />
  <rect
     width="51"
     height="2"
     x="1090.5"
     y="316.00009"
     id="rect3094"
     style="fill:#333333;fill-opacity:1;stroke:#000000;stroke-width:0;stroke-linecap:square;stroke-miterlimit:4;stroke-opacity:1;stroke-dasharray:none" />
  <path
     d="m 1141.1875,207.02176 -51,11 0.625,2.9375 51,-11 -0.625,-2.9375 z"
     id="path3096"
     style="font-size:medium;font-style:normal;font-variant:normal;font-weight:normal;font-stretch:normal;text-indent:0;text-align:start;text-decoration:none;line-height:normal;letter-spacing:normal;word-spacing:normal;text-transform:none;direction:ltr;block-progression:tb;writing-mode:lr-tb;text-anchor:start;color:#000000;fill:#333333;fill-opacity:1;stroke:none;stroke-width:3;marker:none;visibility:visible;display:inline;overflow:visible;enable-background:accumulate;font-family:Andale Mono;-inkscape-font-specification:Andale Mono" />
  <rect
     width="99"
     height="4"
     x="218.49997"
     y="-1040.5"
     transform="matrix(0,1,-1,0,0,0)"
     id="rect3098"
     style="fill:#ffffff;fill-opacity:1;stroke:#000000;stroke-width:1;stroke-linecap:square;stroke-miterlimit:4;stroke-opacity:1;stroke-dasharray:none" />
  <g
     transform="matrix(-1,0,0,1,991,-423.79074)"
     id="g4446">
    <g
       id="g4424">
      <rect
         width="2"
         height="10"
         x="851"
         y="561.79071"
         id="rect4408"
         style="fill:#ff0000;fill-opacity:1;stroke:none" />
      <rect
         width="2"
         height="10"
         x="851"
         y="-581.79071"
         transform="scale(1,-1)"
         id="rect4410"
         style="fill:#ffffff;fill-opacity:1;stroke:none" />
      <rect
         width="2"
         height="10"
         x="851"
         y="-601.79071"
         transform="scale(1,-1)"
         id="rect4412"
         style="fill:#ffffff;fill-opacity:1;stroke:none" />
      <rect
         width="2"
         height="10"
         x="851"
         y="581.79071"
         id="rect4414"
         style="fill:#ff0000;fill-opacity:1;stroke:none" />
    </g>
    <use
       transform="translate(0,80.00003)"
       id="use4432"
       x="0"
       y="0"
       width="1180"
       height="600"
       xlink:href="#g4424" />
    <use
       transform="translate(0,120.00003)"
       id="use4434"
       x="0"
       y="0"
       width="1180"
       height="600"
       xlink:href="#g4424" />
    <g
       transform="translate(0,160)"
       id="g4436">
      <rect
         width="2"
         height="10"
         x="851"
         y="561.79071"
         id="rect4438"
         style="fill:#ff0000;fill-opacity:1;stroke:none" />
      <rect
         width="2"
         height="10"
         x="851"
         y="-581.79071"
         transform="scale(1,-1)"
         id="rect4440"
         style="fill:#ffffff;fill-opacity:1;stroke:none" />
    </g>
    <use
       transform="translate(0,40.00003)"
       id="use4430"
       x="0"
       y="0"
       width="1180"
       height="600"
       xlink:href="#g4424" />
  </g>
  <rect
     width="901"
     height="439"
     x="140"
     y="22.000002"
     id="rect4461"
     style="opacity:0.1;fill:#000000;fill-opacity:1;stroke:none" />
  <rect
     width="99"
     height="4"
     x="218.49997"
     y="140.5"
     transform="matrix(0,1,1,0,0,0)"
     id="rect3646"
     style="fill:#ffffff;fill-opacity:1;stroke:#000000;stroke-width:1;stroke-linecap:square;stroke-miterlimit:4;stroke-opacity:1;stroke-dasharray:none" />
</svg>
